<?xml version="1.0" encoding="utf-8"?>
<?xml-stylesheet type="text/xsl" href="rss1.xsl"?>
<rss version="2.0" xmlns:atom="http://www.w3.org/2005/Atom" xmlns:content="http://purl.org/rss/1.0/modules/content/" xmlns:dc="http://purl.org/dc/elements/1.1/" xmlns:media="http://search.yahoo.com/mrss/">
<channel>
 <title>Getty</title>
 <link>http://www.gettyimg.com/</link>
 <atom:link href="http://www.gettyimg.com/" rel="self" type="application/rss+xml" />

 
                <item>
                <title><![CDATA[【Apple Music】WEB-RiP - Harry Styles - As It Was [Apple HD Music Video]]]></title>
                <link><![CDATA[https://sharemania.us/threads/harry-styles-as-it-was-apple-hd-music-video.242655/]]></link>
                <description><![CDATA[<article>
<blockquote class="messageText SelectQuoteContainer ugc baseHtml">
<span style="font-size: 22px"><b>Harry Styles - As It Was [Apple HD Music Video]</b></span><br>
<br>
<img src="https://imgur.com/zBiiD5M.jpg" class="bbCodeImage LbImage" alt="[​IMG]" data-url="https://imgur.com/zBiiD5M.jpg" style=""><br>
<br>
<div class="bbCodeBlock bbCodeCode">
<div class="type">Code:</div>
<pre>General
Format                         : MPEG-4
Codec ID                       : M4V  (isom/M4V /mp42)
File size                      : 203 MiB
Duration                       : 2 min 45 s
Overall bit rate mode          : Variable
Overall bit rate               : 10.3 Mb/s
Movie name                     : As It Was
Performer                      : Harry Styles
Genre                          : Pop
ContentType                    : Music Video
Recorded date                  : UTC 2022-04-05 07:00:00
Encoded date                   : UTC 2024-03-12 20:22:55
Tagged date                    : UTC 2024-03-12 20:22:55
Copyright                      : ℗ (C) 2022 Erskine Records Limited, under exclusive license to Columbia Records, a Division of Sony Music Entertainment
Cover                          : Yes
Rating                         : None
GenreID                        : 1614
AppleStoreCountry              : Canada
AlbumTitleID                   : 471260289
AppleStoreCatalogID            : 1616896437

Video
ID                             : 2
Format                         : AVC
Format/Info                    : Advanced Video Codec
Format profile                 : High@L4
Format settings                : CABAC / 4 Ref Frames
Format settings, CABAC         : Yes
Format settings, Reference fra : 4 frames
Codec ID                       : avc1
Codec ID/Info                  : Advanced Video Coding
Duration                       : 2 min 45 s
Source duration                : 2 min 45 s
Bit rate                       : 9 588 kb/s
Maximum bit rate               : 18.2 Mb/s
Width                          : 1 550 pixels
Height                         : 1 080 pixels
Display aspect ratio           : 1.435
Frame rate mode                : Constant
Frame rate                     : 25.000 FPS
Color space                    : YUV
Chroma subsampling             : 4:2:0
Bit depth                      : 8 bits
Scan type                      : Progressive
Bits/(Pixel*Frame)             : 0.229
Stream size                    : 189 MiB (93%)
Source stream size             : 197 MiB (97%)
Title                          : Core Media Video
Language                       : English
Encoded date                   : UTC 2024-02-17 13:41:13
Tagged date                    : UTC 2024-03-12 20:23:00
Color range                    : Limited
Color primaries                : BT.709
Transfer characteristics       : BT.709
Matrix coefficients            : BT.709
mdhd_Duration                  : 165640
Codec configuration box        : avcC

Audio
ID                             : 1
Format                         : AAC LC
Format/Info                    : Advanced Audio Codec Low Complexity
Codec ID                       : mp4a-40-2
Duration                       : 2 min 45 s
Duration_LastFrame             : -9 ms
Bit rate mode                  : Variable
Bit rate                       : 297 kb/s
Maximum bit rate               : 492 kb/s
Channel(s)                     : 2 channels
Channel layout                 : L R
Sampling rate                  : 48.0 kHz
Frame rate                     : 46.875 FPS (1024 SPF)
Compression mode               : Lossy
Stream size                    : 5.86 MiB (3%)
Title                          : Core Media Audio
Encoded date                   : UTC 2024-02-17 13:40:56
Tagged date                    : UTC 2024-03-12 20:23:00

Text
ID                             : 3
Format                         : EIA-608
Codec ID                       : c608
Duration                       : 2 min 37 s
Bit rate mode                  : Variable
Bit rate                       : 136 b/s
Maximum bit rate               : 944 b/s
Frame rate                     : 0.494 FPS
Stream size                    : 2.62 KiB (0%)
Title                          : Core Media Closed Caption
Language                       : English
Forced                         : No
Encoded date                   : UTC 2024-02-17 13:41:13
Tagged date                    : UTC 2024-03-12 20:23:00
</pre>
</div>
<div class="bbCodeBlock bbCodeVfcHH HiddenContent">
<div class="attribution type">Hidden Content:</div>
<blockquote>You must reply before you can see the hidden data contained here.</blockquote>
</div>
<div class="messageTextEndMarker">&nbsp;</div>
</blockquote>
</article>]]></description>
                <author><![CDATA[Mu$iC @$YLUM]]></author>
                </item>

                </channel></rss>